<svg width="794" height="213" viewBox="0 0 794 213" fill="none" xmlns="http://www.w3.org/2000/svg">
<g clip-path="url(#clip0_25_50)">
<path d="M86.9855 154.068L43.4006 196.731C16.5862 181.619 0 160.794 0 160.794L55.5638 129.373C55.5638 129.373 63.4884 133.98 75.283 137.297L86.9855 154.068Z" fill="#E8E8E8"/>
<path d="M92.7907 150.474L83.0233 139.232C89.0127 140.338 95.6472 140.983 102.466 140.522L92.7907 150.474Z" fill="#E8E8E8"/>
<path d="M138.956 132.69L64.502 206.314C59.3418 204.563 54.366 202.444 49.7587 200.048L113.616 138.495C119.974 136.836 126.424 133.888 132.505 129.28L138.956 132.69Z" fill="#E8E8E8"/>
<path d="M194.243 160.886C149.552 211.382 106.889 217.74 72.8873 208.986L145.867 136.283L194.243 160.886Z" fill="#E8E8E8"/>
<path d="M146.788 119.236C145.774 118.407 144.3 118.592 143.471 119.605L141.536 122.093C140.706 123.107 140.891 124.581 141.904 125.41L162.729 141.72C163.743 142.549 165.217 142.365 166.046 141.351L167.982 138.864C168.811 137.85 168.627 136.376 167.613 135.546L146.788 119.236Z" fill="#E8E8E8"/>
<path d="M183.554 98.688L177.473 93.62C176.183 92.6064 174.34 92.6985 173.326 93.9886L153.146 118.039C152.132 119.329 152.225 121.172 153.515 122.185L159.504 127.253C160.794 128.267 162.637 128.175 163.651 126.885L183.831 102.835C184.936 101.637 184.752 99.7938 183.554 98.688ZM164.941 117.946H161.808V114.814H164.941V117.946ZM170.285 111.496H167.152V108.363H170.285V111.496ZM175.998 104.677H172.865V101.545H175.998V104.677Z" fill="#E8E8E8"/>
<path d="M92.33 0C55.5639 0 25.8008 29.7631 25.8008 66.5292C25.8008 103.295 55.5639 133.058 92.33 133.058C129.096 133.058 158.859 103.295 158.859 66.5292C158.859 29.7631 129.096 0 92.33 0ZM107.718 6.91092C107.995 5.98947 109.008 5.62088 109.838 5.89732C110.759 6.17375 132.69 14.0983 141.536 35.1997C141.904 36.029 141.536 37.0426 140.614 37.4111C140.43 37.5033 140.154 37.5033 139.969 37.5033C139.324 37.5033 138.679 37.1347 138.403 36.4897C130.11 16.7705 108.916 9.12244 108.64 9.03029C107.903 8.75385 107.442 7.74024 107.718 6.91092ZM133.151 83.1154H54.2738C46.165 83.1154 39.5305 76.4809 39.5305 68.3721C39.5305 61.2769 42.387 54.8267 47.0865 50.1272C51.7859 45.4278 58.1439 42.5713 65.3313 42.5713H122.185C136.376 42.5713 147.894 54.0895 147.894 68.2799C147.894 72.3344 146.235 76.0202 143.563 78.6924C140.983 81.4568 137.297 83.1154 133.151 83.1154Z" fill="#E8E8E8"/>
<path d="M70.6757 75.3752C76.121 75.3752 80.5353 70.9609 80.5353 65.5156C80.5353 60.0703 76.121 55.656 70.6757 55.656C65.2304 55.656 60.8162 60.0703 60.8162 65.5156C60.8162 70.9609 65.2304 75.3752 70.6757 75.3752Z" fill="#E8E8E8"/>
<path d="M118.223 75.3752C123.668 75.3752 128.083 70.9609 128.083 65.5156C128.083 60.0703 123.668 55.656 118.223 55.656C112.778 55.656 108.363 60.0703 108.363 65.5156C108.363 70.9609 112.778 75.3752 118.223 75.3752Z" fill="#E8E8E8"/>
<path d="M182.08 23.3129L200.878 45.2435L172.589 53.0759C167.337 54.5502 163.006 49.3901 165.954 45.2435L182.08 23.3129Z" fill="#E8E8E8"/>
<path d="M210 74.7302L194.243 91.9614L167.797 66.3449C164.849 61.7376 168.534 56.0246 173.326 57.7754L210 74.7302Z" fill="#E8E8E8"/>
<path d="M306.3 153.2V111.3C306.3 100.6 303.2 97.7 294.5 97.7C284.9 97.7 280.3 103 280.3 113.6V153.3H262V84H279.4V94.1C283.6 86.4 290.7 82.1 301.8 82.1C315 82.1 324.7 90.1 324.7 105.2V153.2H306.3Z" fill="#E8E8E8"/>
<path d="M333.2 75.7V58.7H351.5V75.7H333.2ZM333.2 153.2V84H351.5V153.2H333.2Z" fill="#E8E8E8"/>
<path d="M404.1 153.2V111.3C404.1 100.6 401 97.7 392.3 97.7C382.7 97.7 378.1 103 378.1 113.6V153.3H359.8V84H377.2V94.1C381.4 86.4 388.5 82.1 399.6 82.1C412.8 82.1 422.5 90.1 422.5 105.2V153.2H404.1Z" fill="#E8E8E8"/>
<path d="M434.1 84H452.5V157.9C452.5 174.6 440.7 186 425.2 186C406.2 186 397.3 174.9 397.3 157H414.5C414.5 164.9 417 169.8 424.2 169.8C431.5 169.8 434.1 165 434.1 157.1V84ZM434.1 75.7V58.7H452.5V75.7H434.1Z" fill="#E8E8E8"/>
<path d="M504.9 153.2C504.3 151.5 503.9 149.1 503.8 147C499.4 151.8 492.1 155 482.8 155C467 155 459.7 147.3 459.7 136C459.7 116 473.1 113.8 491.5 111.2C500.6 109.9 503.2 108.1 503.2 103.3C503.2 98.8 498.7 96.1 491.5 96.1C483.2 96.1 479.8 100.2 479 106.4H462C462.3 92.1 470.2 82.1 492.4 82.1C514.4 82.1 521.9 91.9 521.9 109.4V153.2H504.9ZM503.6 119.3C501.8 121.1 498.5 122.1 491.8 123.4C481.4 125.4 478 128.3 478 134.2C478 139.4 481.1 141.9 486.9 141.9C496.3 141.9 503.4 135 503.5 126.8L503.6 119.3Z" fill="#E8E8E8"/>
<path d="M592.3 128.1C590.3 144.1 577.2 155 560.5 155C541.7 155 528.7 142.5 528.7 117.7C528.7 92.9 541.6 82.1 561.1 82.1C579.1 82.1 591.4 92.4 592.5 108.7H574.1C573.1 101.5 567.9 97.3 561 97.3C553.3 97.3 546.9 102.2 546.9 117.3C546.9 132.4 553.2 139.7 560.4 139.7C567.6 139.7 573.2 135.6 573.9 128.2H592.3V128.1Z" fill="#E8E8E8"/>
<path d="M642 153.2V110.3C642 99.9 638.5 96.7 630.2 96.7C621.1 96.7 616 104.3 616 113.6V153.3H597.7V58.8H616V93C618.7 86.8 627.1 82.2 636.4 82.2C650.6 82.2 660.5 90.5 660.5 104.3V153.3H642V153.2Z" fill="#E8E8E8"/>
<path d="M711.8 153.2C711.2 151.5 710.8 149.1 710.7 147C706.3 151.8 699 155 689.7 155C673.9 155 666.6 147.3 666.6 136C666.6 116 680 113.8 698.4 111.2C707.6 109.9 710.1 108.1 710.1 103.3C710.1 98.8 705.6 96.1 698.4 96.1C690.1 96.1 686.7 100.2 685.9 106.4H668.9C669.2 92.1 677.1 82.1 699.3 82.1C721.3 82.1 728.8 91.9 728.8 109.4V153.2H711.8ZM710.6 119.3C708.8 121.1 705.5 122.1 698.8 123.4C688.4 125.4 685 128.3 685 134.2C685 139.4 688.1 141.9 693.9 141.9C703.3 141.9 710.4 135 710.5 126.8L710.6 119.3Z" fill="#E8E8E8"/>
<path d="M776.2 107.6H793.2V127.3C793.2 141.9 784.8 155 765.2 155C744.9 155 736.9 142.1 736.9 127.1V65.2H754.9V84H793.2V96.9H754.9V125.3C754.9 134 758 139.1 765.5 139.1C772.8 139.1 776.2 134.2 776.2 125.6V107.6Z" fill="#E8E8E8"/>
</g>
<defs>
<clipPath id="clip0_25_50">
<rect width="794" height="213" fill="white"/>
</clipPath>
</defs>
</svg>
